<svg xmlns="http://www.w3.org/2000/svg" xmlns:xlink="http://www.w3.org/1999/xlink" version="1.1" id="Layer_1" x="0px" y="0px" style="enable-background:new 0 0 494.1 177;" preserveAspectRatio="xMidYMid meet" xml:space="preserve" viewBox="28.67 24.32 441.63 97.94">
<style type="text/css">
<![CDATA[
	.st0{fill:#466DAB;}
	.st1{fill:#ABAC37;}
	.st2{fill:#E1CC20;}
	.st3{fill:#E26B29;}
	.st4{fill:#883694;}
	.st5{fill:#EC7B24;}
	.st6{fill:#FFFFFF;}
	.st7{fill:#668E3D;}
	.st8{fill:#D9282D;}
]]>
</style>
<g>
	<path class="st1" d="M79.8,77.9c-0.5-0.5-1.2-0.6-1.8-0.4c-0.3,0.1-0.7,0.2-1.1,0.4c-6.6,2.6-19.7,15.7-26.7,24.4   c-1.7,2.1-3,3.9-3.9,5.3c2.5,2,5.3,3.4,7.4,3.9l0,0c2.1,0.6,4.4,1,6.9,1c12.9,0,24-10.3,24-23C84.6,85.1,82.3,80.2,79.8,77.9"/>
	<path class="st7" d="M51.9,80.4c-3.1-2.4-8.1-4-11.7-5c-0.7-0.2-1,0.2-1.3,0.8c-3.2,7.3-3.5,13.4-0.2,22c1.2,3,3.5,5.6,4.5,6.5   c1.8-2,4.7-5.3,6-6.8c2-2.2,4.7-5,7.7-8c0.2-0.1,0.8-0.7,1.6-1.5C57.8,87,55.7,83.4,51.9,80.4"/>
	<path class="st3" d="M32.8,75c-8.7,15.2-3.5,36.4,14.2,44c17,7.3,32.7,1,40.1-5.6c8.7-7.8,11-14.5,11.3-22.4c0.2-6-1.3-12.3-3.9-17   c-1.5-2.7-4.9-3.6-7.6-2l0,0c-1.1,0.6-2.2,1.3-3.5,2c4,4.5,8,11.2,6.1,21c-2,10.5-13,23.6-33.7,21.3c-7.9-0.9-15.9-6-20-13   c-5.3-9.1-3.9-20.4-0.9-27.1l0,0c0,0,0.6-1.4,1.1-2c0,0,0,0-0.1,0C34.8,73.8,33.4,74,32.8,75L32.8,75z"/>
	<path class="st1" d="M62.5,81.2L62.5,81.2c-0.1,0.1-0.2,0.2-0.3,0.3c-0.1,0.1-0.4,0.2-0.7,0.2c-0.5,0-0.9-0.3-1-1   c-0.4-1.4-0.5-3.7-0.5-5.6c0.3-2.6,0.8-8.5-3.1-13.4c0,0,0,0,0,0c-2.7-3.4-6.5-5.1-9.4-6c-7.3-2.4-11.5-4.2-13-6.7   c-0.2-0.3-0.5-0.4-0.7-0.2c-0.8,1-1.8,3.4-2,6.2C30.4,75.3,50,74.5,54.6,76.3c1.2,0.5,2.1,1.1,2.8,1.9c1,1.1,1.5,2.5,1.8,3.7l0,0   c0.1,0.6,0.2,1.1,0.3,1.6c0,0,0,0.3,0,0.4c0,0.2,0,0.3,0,0.4c0,0,0,0,0,0.1C59.6,84.4,62.1,81.7,62.5,81.2"/>
	<path class="st3" d="M222.9,71.5c-1.8,0-5.8,3.3-5.5,3.7c0.2,0.4,4.8,6.8,4.8,15c0,6-2.6,22-8.8,22c-1.5,0-2.8-18.7-2.8-21.5   c0-2.7-1.1-12.7-8-12.7c-3.2,0-3.7,0.7-3.7,0.7c0,0.4-1.1,6-1.1,9.7c0,3.5,0.3,9.5,1.7,15c-0.5,0.9-1.3,2.2-1.5,2.8   c-1.1,2-3.4,6.5-6.3,6.5c-1.7,0-2.6-1.1-2.6-9.6c0-3.3,1.5-15.6,5.2-22.9c0.2-0.4-1.7-2.7-6.2-2.7c-5.5,0-6.5,2.8-7.5,6.3   c-1.2,4.1-4.5,27.1-13,27.1c-1.7,0-3.6-1.4-3.6-6.5c0-6.5,3.5-13.2,6.3-15.8c1.8-1.6,4.8-3.8,9.9-3.8c0.5-0.9,2.3-8.4-4.5-9.6   c-5.9-1-11.4,2.6-14.6,6c-3.6,3.8-9,12.3-9,21.6c0,3.2,0.8,14,11.4,14c3.6,0,12.1-1.8,15.1-14.3c0,0,0.8-0.6,0.8,0.1   c0,0.7-1.1,14.2,10.2,14.2c4.6,0,8.3-3,10.1-6.1l0,0c0,0,0,0,0-0.1c0-0.1,0.1-0.2,0.1-0.3c0.2-0.5,0.5-1,0.8-1.4   c0.1-0.3,0.3-0.5,0.4-0.8c2.1,5,5.5,8.8,10.8,8.8c5.5,0,16.5-8.3,17.8-34.1C229.7,80.8,229.8,71.5,222.9,71.5"/>
	<path class="st3" d="M134.3,51c-8.1,0-19.8,5.1-19.8,15.6c0,12.8,12.4,19.2,17.1,25.4c2.1,2.9,3.8,4.5,3.8,9.8   c0,3.5-1.6,10.1-9.9,10.1c-3.2,0-7.7-2-7.7-7.1c0-2.1,0.9-5,4-7.8c-0.5-1-2.5-3.6-6-3.6c-4,0-7.9,3.3-7.9,9.5c0,7.2,7.1,14,18.9,14   c8.5,0,21.8-4.7,21.8-19.2c0-10.8-9.4-17.7-12.1-20c-2.8-2.4-8.4-7.1-8.4-13.5c0-3.2,1.5-8.2,7.1-8.2c2.5,0,6.4,1.3,6.4,8.9   c0,1.9-0.9,5.3-0.9,5.3c1.1,0.7,11.5,2.5,11.5-5.7C151.9,62.1,149.8,51,134.3,51"/>
	<path class="st3" d="M241.8,97.6c0.9-6.1,5.7-16.7,9.8-16.6c2.9,0.1,2.5,3.3,2.5,4.3c-0.4,8.5-9.9,15.1-12.4,15.7   C241.6,101,241.5,99.7,241.8,97.6 M265.8,100c-1.2,5.5-7.9,12.3-15.4,12.3c-7.8,0-8-8.3-8-8.3c11-2,20.8-9.1,20.8-18.3   c0-9.1-9-9.7-11.8-9.7c-13.9,0-21.2,15.6-21.2,24.4c0,16.1,14.4,16.5,16.4,16.5c10,0,19.5-7.2,21.6-14C269.1,99.9,266,99,265.8,100   "/>
	<path class="st3" d="M350.4,53.2c-1-1-2.5-2.6-5.5-2.5c-10.5,0-14.5,17.6-16,24c-2.2,9.7-3.9,32.3-3.9,32.3   c-10.3-24.5-6.1-54-6.1-54s-4-2.1-5.4-2.1c-4,0-5.7,3.7-6.2,5.6c-0.5,1.9-4,19.2-7.5,27.4c-6.9,15.7-13,21.7-21.5,27   c0.2,6.8,5.4,7,7.7,7c10.9,0,14.8-24.5,19.7-40c0.3-1,0.8-1.3,0.8-1.3c0,19.9,4.7,40.4,14.3,40.4c8.4,0,10.8-20.6,11.5-31.2   c0.5-7.6,3.8-22.1,6.5-25.6c0.2,3.5,0.2,9.1,0.2,11.7c0,26.9,5.3,45.1,11.5,45.1c3.5,0,7.1-3.8,8.1-4.9c0.6-0.6,1.5-1.2,1-2.4   C351.7,90.4,350,67.9,350.4,53.2"/>
	<path class="st3" d="M467.2,101.9c-0.8,1.2-3.5,9.9-12.2,11.3c-1.2,0.2-3.1-0.6-3.1-4.9c0-1.5,2.6-13.5,4-24   c5.4-0.1,10.1-0.2,10.4-0.2c0,0,1.1-4.4-4.3-5.3c-0.4,0-2.6,0-5.5,0.3c0.1-1.2,0.2-2.3,0.2-3.4c0.1-3.5-1.3-7.4-7.7-7.4h-3   c-0.5,2.4-1,6.8-1.7,11.7c-1.1,0.1-1.9,0.2-2.1,0.2c-0.8,0.1-1.6,0.3-2.2,0.7c-0.4-2.3-2.1-6-7.5-6c-6.2,0-10.9,7.8-10.9,11.4   l-0.6-0.1c0,0,0.5-10-7-10h-2.3c0,0-2.9,23-3.2,28.5c0,0.6,0,1.4-0.1,2.2l0,0c-1.2,2.1-3.3,6-6,6c-1.7,0-2.6-1-2.6-9.6   c0-3.3,1.5-15.6,5.2-22.9c0.2-0.4-1.7-2.7-6.2-2.7c-5.5,0-6.4,2.8-7.5,6.3c-1.2,4.1-4.5,27.2-13,27.2c-1.7,0-3.6-1.5-3.6-6.5   c0-6.5,3.5-13.1,6.3-15.8c1.8-1.6,4.8-3.8,9.9-3.8c0.5-0.9,2.3-8.4-4.6-9.6c-5.9-1-11.4,2.6-14.6,6c-3.6,3.8-9,12.3-9,21.7   c0,3.2,0.9,14,11.4,14c3.6,0,12.1-1.8,15.1-14.3c0,0,0.9-0.6,0.9,0.1c0,0.7-1.1,14.2,10.2,14.2c3.9,0,7.1-2.2,9.2-4.8   c1.2,2.5,3.9,4.6,9.5,4.6c0,0,4.1-35.2,9-35.2c1.2,0,1.7,1.1,1.7,2.9c0,1.8-1.5,6.3-1.5,6.3s1.8,1.3,3.4,1.3c1.2,0,7.3-0.7,8.5-7.3   c0.3,0,1.7,0,3.8-0.1c-1,7.5-1.8,15.1-1.9,17.5c-0.2,3.9,0,14.8,10.7,14.8c8.8,0,15.7-6.4,17.6-14   C470.4,101.6,468.3,100.4,467.2,101.9"/>
	<path class="st7" d="M82.9,47.3c-0.6-2-3.7-9.8-4.7-15.4c-0.2-1.4-0.5-4.1,0-5.5c0.5-1.5-0.4-2.5-1.7-1.9c-0.3,0.1-0.7,0.4-1.2,0.6   C60,32.8,58.2,45.8,57.9,50.3C57.3,58.7,64,66.6,65.4,73c0.5,2.4-0.8,5-1.8,6.6c-0.4,0.6-0.7,1.2-1,1.5c0,0-3,3.2-3.1,3.2v0   c0,0,0,0.1,0,0.1l0.1,0.3c0.3,0.5,0.8,1.2,1,1.4c0.1-0.1,3.4-3.1,3.9-3.6c2.6-2.5,10.3-8.9,11.4-9.8C84.3,66.2,86.7,59.1,82.9,47.3   "/>
</g>
</svg>