<svg width="332" height="150" viewBox="0 0 332 150" fill="none" xmlns="http://www.w3.org/2000/svg">
<g clip-path="url(#clip0_3_36)">
<path d="M122.973 172.596C153.437 200.494 196.833 194.372 227.84 161.725C258.848 129.079 252.63 78.0001 216.671 56.8894C180.711 35.7787 141.059 36.5292 111.804 67.7604C82.5481 98.9916 92.5102 144.698 122.973 172.596Z" fill="#EFF3F0"/>
<path d="M297.206 25.8775C313.643 34.8873 333.988 35.6879 346.039 20.8063C358.09 5.92466 355.765 -15.9328 340.846 -28.0137C325.928 -40.0946 305.18 -34.3681 292.014 -22.9425C278.847 -11.5169 280.769 16.8677 297.206 25.8775Z" fill="#EFF3F0"/>
<path d="M357.933 127.142C378.383 143.703 378.398 170.88 364.982 194.149C351.566 217.418 328.795 238.837 312.909 258.454C297.023 278.071 267.662 283.111 245.901 265.49C224.141 247.869 220.75 216.37 238.852 198.483C256.954 180.597 271.559 153.626 290.925 134.179C310.291 114.732 337.482 110.582 357.933 127.142Z" fill="#EFF3F0"/>
<path d="M84.1083 68.086C100.415 81.2911 122.558 78.3033 135.179 62.7183C147.799 47.1333 145.763 21.3745 129.811 11.6477C113.859 1.92096 90.3655 -1.7814 78.7406 17.0155C67.1157 35.8123 67.8015 54.881 84.1083 68.086Z" fill="#E0436B"/>
<path d="M64.5273 19.5435C67.9239 22.294 72.5372 21.6704 75.1671 18.4227C77.7971 15.1749 77.3741 9.80814 74.0514 7.78234C70.7286 5.75653 65.8343 4.98628 63.4116 8.90319C60.9888 12.8201 61.1308 16.793 64.5273 19.5435Z" fill="#E0436B"/>
<path d="M271.185 35.4507C279.754 42.3895 291.392 40.8164 298.027 32.6231C304.662 24.4299 303.594 10.891 295.212 5.78044C286.83 0.669883 274.483 -1.27325 268.371 8.60806C262.259 18.4894 262.617 28.512 271.185 35.4507Z" fill="#7252A4"/>
<path d="M144.222 68.5338C147.618 71.2843 152.231 70.6607 154.861 67.4129C157.491 64.1652 157.068 58.7984 153.746 56.7726C150.423 54.7468 145.529 53.9765 143.106 57.8934C140.683 61.8103 140.825 65.7833 144.222 68.5338Z" fill="#7252A4"/>
<path d="M159.409 69.2735C160.953 70.5237 163.05 70.2403 164.245 68.764C165.441 67.2878 165.248 64.8483 163.738 63.9275C162.228 63.0067 160.003 62.6566 158.902 64.437C157.8 66.2174 157.865 68.0233 159.409 69.2735Z" fill="#7252A4"/>
<path d="M115.989 142.529C128.413 153.907 146.111 151.41 158.757 138.096C171.403 124.781 168.867 103.95 154.202 95.341C139.537 86.7316 123.366 87.0377 111.434 99.7747C99.5033 112.512 103.566 131.152 115.989 142.529Z" fill="#F0C933"/>
<path d="M301.104 135.062C305.807 139.369 312.507 138.423 317.294 133.383C322.08 128.344 321.121 120.458 315.569 117.199C310.018 113.94 303.896 114.056 299.38 118.877C294.864 123.699 296.402 130.755 301.104 135.062Z" fill="#F0C933"/>
<path d="M155.218 150.603C156.762 152.017 158.962 151.707 160.534 150.052C162.106 148.397 161.791 145.808 159.968 144.737C158.145 143.667 156.135 143.705 154.652 145.289C153.169 146.872 153.674 149.189 155.218 150.603Z" fill="#F0C933"/>
<path d="M313.055 145.255C314.599 146.669 316.799 146.359 318.371 144.704C319.943 143.049 319.627 140.46 317.805 139.39C315.982 138.32 313.972 138.358 312.489 139.941C311.006 141.524 311.511 143.841 313.055 145.255Z" fill="#F0C933"/>
<path d="M161.068 141.197C161.84 141.904 162.94 141.749 163.725 140.921C164.511 140.094 164.354 138.799 163.442 138.264C162.531 137.729 161.526 137.748 160.784 138.54C160.043 139.331 160.295 140.49 161.068 141.197Z" fill="#F0C933"/>
<path d="M206.92 96.5929C211.623 100.9 218.322 99.9546 223.109 94.9147C227.896 89.8748 226.936 81.9894 221.385 78.7304C215.833 75.4714 209.712 75.5872 205.195 80.4086C200.679 85.23 202.217 92.2861 206.92 96.5929Z" fill="#453264"/>
<path d="M77.9378 85.5715C79.482 86.9857 81.6818 86.6754 83.2536 85.0205C84.8254 83.3656 84.5102 80.7763 82.6874 79.7062C80.8646 78.6361 78.8546 78.6741 77.3716 80.2573C75.8886 81.8404 76.3935 84.1574 77.9378 85.5715Z" fill="#453264"/>
<path d="M204.254 102.125C203.191 103.93 203.952 106.017 205.898 107.21C207.843 108.404 210.311 107.557 210.978 105.551C211.646 103.546 211.191 101.588 209.334 100.466C207.477 99.3449 205.316 100.321 204.254 102.125Z" fill="#453264"/>
<path d="M321.976 66.0617C326.679 70.3685 333.379 69.4233 338.166 64.3834C342.953 59.3435 341.993 51.4581 336.441 48.1991C330.89 44.9401 324.769 45.056 320.252 49.8774C315.736 54.6988 317.274 61.7548 321.976 66.0617Z" fill="#0F90D1"/>
<path d="M45.1099 233.447C63.5093 248.347 92.8789 244.901 111.654 226.515C130.428 208.129 127.822 175.354 104.6 159.984C81.377 144.614 54.4835 146.63 38.0559 166.916C21.6283 187.203 26.7105 218.548 45.1099 233.447Z" fill="#0F90D1"/>
<path d="M313.188 63.9111C328.106 75.992 328.115 95.8202 318.326 112.798C308.536 129.776 291.922 145.404 280.331 159.718C268.74 174.032 247.318 177.711 231.444 164.856C215.569 152.002 213.097 129.021 226.305 115.969C239.513 102.918 250.171 83.2391 264.301 69.0493C278.43 54.8595 298.269 51.8302 313.188 63.9111Z" fill="#0F90D1"/>
<path d="M238.268 60.1489C244.621 65.9664 253.67 64.6897 260.136 57.8821C266.602 51.0745 265.305 40.4233 257.807 36.0212C250.308 31.6191 242.04 31.7756 235.939 38.2881C229.839 44.8005 231.916 54.3315 238.268 60.1489Z" fill="#C4C8D4"/>
<path d="M17.9029 175.488C35.3104 191.43 60.1083 187.932 77.8269 169.276C95.5455 150.621 91.9926 121.434 71.4443 109.37C50.896 97.3071 28.2377 97.736 11.5202 115.582C-5.19724 133.429 0.495343 159.547 17.9029 175.488Z" fill="#C4C8D4"/>
<path d="M316.501 241.901C333.908 257.842 358.706 254.344 376.425 235.689C394.143 217.033 390.59 187.846 370.042 175.782C349.494 163.719 326.835 164.148 310.118 181.994C293.4 199.841 299.093 225.959 316.501 241.901Z" fill="#C4C8D4"/>
<path d="M303.98 43.2079C306.66 44.676 309.979 44.8035 311.948 42.3728C313.916 39.942 313.54 36.3748 311.108 34.4053C308.676 32.4358 305.29 33.3737 303.14 35.2405C300.99 37.1074 301.3 41.7399 303.98 43.2079Z" fill="#EFF3F0"/>
<path d="M256.909 13.137C258.534 14.0268 260.545 14.1041 261.738 12.6309C262.931 11.1577 262.704 8.99577 261.229 7.80212C259.755 6.60848 257.703 7.17686 256.4 8.30829C255.098 9.43973 255.285 12.2473 256.909 13.137Z" fill="#EFF3F0"/>
<path d="M241.425 -43.524C256.343 -31.4432 258.644 -9.55569 246.563 5.36296C234.482 20.2816 218.533 36.4136 208.568 52.2832C198.602 68.1527 173.132 71.3051 159.681 57.4214C146.23 43.5377 141.07 25.1711 154.543 8.53437C168.015 -8.10239 179.3 -22.0381 192.538 -38.3858C205.776 -54.7335 226.506 -55.6049 241.425 -43.524Z" fill="#6759AE"/>
</g>
<defs>
<clipPath id="clip0_3_36">
<rect width="332" height="150" fill="white"/>
</clipPath>
</defs>
</svg>
